<svg id="icons" enable-background="new 0 0 64 64" height="512" viewBox="0 0 64 64" width="512" xmlns="http://www.w3.org/2000/svg"><g><g><g><path d="m63 55.5h-62c-.369 0-.708-.203-.882-.528s-.154-.72.05-1.026l10-15c.305-.46.925-.584 1.387-.277.46.307.584.927.277 1.387l-8.964 13.444h58.264l-8.964-13.445c-.307-.46-.183-1.08.277-1.387s1.081-.183 1.387.277l10 15c.204.307.224.701.05 1.026s-.513.529-.882.529z"/></g><g><path d="m63 59.5h-62c-.553 0-1-.447-1-1v-4c0-.553.447-1 1-1h62c.553 0 1 .447 1 1v4c0 .553-.447 1-1 1zm-61-2h60v-2h-60z"/></g><g><path d="m9.849 55.5c-.144 0-.29-.031-.43-.098-.498-.237-.71-.834-.472-1.333l5.243-11c.236-.497.829-.71 1.333-.472.498.237.71.834.472 1.333l-5.243 11c-.171.36-.529.57-.903.57z"/></g><g><path d="m20.134 50.5c-.092 0-.185-.013-.276-.039-.531-.152-.838-.706-.686-1.236l1.434-5c.151-.532.711-.838 1.236-.686.531.152.838.706.686 1.236l-1.434 5c-.125.44-.526.725-.96.725z"/></g><g><path d="m54.151 55.5c-.374 0-.732-.21-.903-.569l-1.908-4.002c-.238-.499-.026-1.096.472-1.333.503-.239 1.097-.025 1.333.472l1.908 4.002c.238.499.026 1.096-.472 1.333-.14.066-.286.097-.43.097z"/></g><g><path d="m50.335 47.495c-.374 0-.732-.21-.903-.569l-3.334-6.995c-.238-.499-.026-1.096.472-1.333.503-.24 1.097-.025 1.333.472l3.334 6.995c.238.499.026 1.096-.472 1.333-.14.066-.286.097-.43.097z"/></g><g><path d="m43.866 50.5c-.435 0-.834-.285-.96-.725l-1.434-5c-.152-.53.154-1.084.686-1.236.527-.151 1.084.153 1.236.686l1.434 5c.152.53-.154 1.084-.686 1.236-.091.026-.184.039-.276.039z"/></g><g><path d="m15.094 44.5h-6.761c-.553 0-1-.447-1-1s.447-1 1-1h6.761c.553 0 1 .447 1 1s-.448 1-1 1z"/></g><g><path d="m60.333 51.5h-8.089c-.553 0-1-.447-1-1s.447-1 1-1h8.089c.553 0 1 .447 1 1s-.447 1-1 1z"/></g><g><path d="m57.667 47.5h-7.33c-.553 0-1-.447-1-1s.447-1 1-1h7.33c.553 0 1 .447 1 1s-.447 1-1 1z"/></g><g><path d="m30 45.5h-8.434c-.553 0-1-.447-1-1s.447-1 1-1h8.434c.553 0 1 .447 1 1s-.447 1-1 1z"/></g><g><path d="m42.434 45.5h-8.341c-.553 0-1-.447-1-1s.447-1 1-1h8.341c.553 0 1 .447 1 1s-.448 1-1 1z"/></g><g><path d="m43.867 50.5h-23.734c-.553 0-1-.447-1-1s.447-1 1-1h23.734c.553 0 1 .447 1 1s-.447 1-1 1z"/></g><g><path d="m32 47.5c-.235 0-.471-.083-.659-.248-.626-.549-15.341-13.593-15.341-26.752 0-8.822 7.178-16 16-16s16 7.178 16 16c0 13.159-14.715 26.203-15.341 26.752-.188.165-.424.248-.659.248zm0-41c-7.72 0-14 6.28-14 14 0 10.734 11.144 21.944 14 24.641 2.856-2.696 14-13.906 14-24.641 0-7.72-6.28-14-14-14z"/></g><g><path d="m25.427 40.5h-14.427c-.553 0-1-.447-1-1s.447-1 1-1h14.427c.553 0 1 .447 1 1s-.448 1-1 1z"/></g><g><path d="m53 40.5h-14.428c-.553 0-1-.447-1-1s.447-1 1-1h14.428c.553 0 1 .447 1 1s-.447 1-1 1z"/></g></g><g><g><path d="m32.001 20.498c-1.654 0-3-1.346-3-3s1.346-3 3-3 3 1.346 3 3-1.346 3-3 3zm0-4c-.552 0-1 .448-1 1s.448 1 1 1 1-.448 1-1-.448-1-1-1z"/></g><g><path d="m32.001 16.499c-.553 0-1-.447-1-1v-3c0-.553.447-1 1-1s1 .447 1 1v3c0 .553-.447 1-1 1z"/></g><g><path d="m27.002 32.502c-.103 0-.207-.016-.31-.049-.525-.172-.813-.736-.642-1.261l4-12.272c.171-.525.736-.811 1.261-.642.525.172.813.736.642 1.261l-3.999 12.272c-.139.423-.531.691-.952.691z"/></g><g><path d="m37.004 32.502c-.421 0-.813-.268-.951-.689l-4.003-12.273c-.171-.525.116-1.09.641-1.262.53-.167 1.091.116 1.262.641l4.003 12.272c.171.525-.116 1.09-.641 1.262-.104.033-.209.049-.311.049z"/></g><g><path d="m37.001 26.5h-10.001c-.553 0-1-.447-1-1s.447-1 1-1h10.001c.553 0 1 .447 1 1s-.447 1-1 1z"/></g></g></g></svg>